<svg width="39" height="52" viewBox="0 0 39 52" xmlns="http://www.w3.org/2000/svg" xmlns:xlink="http://www.w3.org/1999/xlink"><title>GOV SERV PIN</title><defs><path d="M29.12538 14.84824C29.12538 6.65696 22.59644 0 14.5627 0S0 6.65696 0 14.84824C0 25.9844 14.5627 42.07 14.5627 42.07s14.56268-16.08559 14.56268-27.22176z" id="b"/><filter x="-29.2%" y="-15.5%" width="158.4%" height="140.4%" filterUnits="objectBoundingBox" id="a"><feMorphology radius="1.5" operator="dilate" in="SourceAlpha" result="shadowSpreadOuter1"/><feOffset dy="2" in="shadowSpreadOuter1" result="shadowOffsetOuter1"/><feGaussianBlur stdDeviation="2" in="shadowOffsetOuter1" result="shadowBlurOuter1"/><feComposite in="shadowBlurOuter1" in2="SourceAlpha" operator="out" result="shadowBlurOuter1"/><feColorMatrix values="0 0 0 0 0 0 0 0 0 0 0 0 0 0 0 0 0 0 0.5 0" in="shadowBlurOuter1"/></filter></defs><g fill="none" fill-rule="evenodd"><g fill-rule="nonzero" transform="translate(5 3)"><use fill="#000" filter="url(#a)" xlink:href="#b"/><use stroke="#E377A5" stroke-width="3" fill="#E377A5" fill-rule="evenodd" xlink:href="#b"/></g><path d="M8.46 8h22.08v22H8.46z"/><path d="M12.14 17.16667v6.41666h2.76v-6.41666h-2.76zm5.52 0v6.41666h2.76v-6.41666h-2.76zm-7.36 11h17.48v-2.75H10.3v2.75zm12.88-11v6.41666h2.76v-6.41666h-2.76zm-4.14-8.25L10.3 13.5v1.83333h17.48V13.5l-8.74-4.58333z" fill="#FFF" fill-rule="nonzero"/></g></svg>