<svg width="39" height="52" viewBox="0 0 39 52" xmlns="http://www.w3.org/2000/svg" xmlns:xlink="http://www.w3.org/1999/xlink"><title>health pin</title><defs><path d="M29.12538 14.84824C29.12538 6.65696 22.59644 0 14.5627 0S0 6.65696 0 14.84824C0 25.9844 14.5627 42.07 14.5627 42.07s14.56268-16.08559 14.56268-27.22176z" id="b"/><filter x="-29.2%" y="-15.5%" width="158.4%" height="140.4%" filterUnits="objectBoundingBox" id="a"><feMorphology radius="1.5" operator="dilate" in="SourceAlpha" result="shadowSpreadOuter1"/><feOffset dy="2" in="shadowSpreadOuter1" result="shadowOffsetOuter1"/><feGaussianBlur stdDeviation="2" in="shadowOffsetOuter1" result="shadowBlurOuter1"/><feComposite in="shadowBlurOuter1" in2="SourceAlpha" operator="out" result="shadowBlurOuter1"/><feColorMatrix values="0 0 0 0 0 0 0 0 0 0 0 0 0 0 0 0 0 0 0.5 0" in="shadowBlurOuter1"/></filter></defs><g fill="none" fill-rule="evenodd"><g fill-rule="nonzero" transform="translate(5 3)"><use fill="#000" filter="url(#a)" xlink:href="#b"/><use stroke="#9D9D9F" stroke-width="3" fill="#9D9D9F" fill-rule="evenodd" xlink:href="#b"/></g><path d="M7 8h24v24H7z"/><path d="M26 11H12c-1.1 0-1.99.9-1.99 2L10 27c0 1.1.9 2 2 2h14c1.1 0 2-.9 2-2V13c0-1.1-.9-2-2-2zm-1 11h-4v4h-4v-4h-4v-4h4v-4h4v4h4v4z" fill="#FFF" fill-rule="nonzero"/></g></svg>