<svg width="39" height="52" viewBox="0 0 39 52" xmlns="http://www.w3.org/2000/svg" xmlns:xlink="http://www.w3.org/1999/xlink"><title>police and justice</title><defs><path d="M29.12538 14.84824C29.12538 6.65696 22.59644 0 14.5627 0S0 6.65696 0 14.84824C0 25.9844 14.5627 42.07 14.5627 42.07s14.56268-16.08559 14.56268-27.22176z" id="b"/><filter x="-29.2%" y="-15.5%" width="158.4%" height="140.4%" filterUnits="objectBoundingBox" id="a"><feMorphology radius="1.5" operator="dilate" in="SourceAlpha" result="shadowSpreadOuter1"/><feOffset dy="2" in="shadowSpreadOuter1" result="shadowOffsetOuter1"/><feGaussianBlur stdDeviation="2" in="shadowOffsetOuter1" result="shadowBlurOuter1"/><feComposite in="shadowBlurOuter1" in2="SourceAlpha" operator="out" result="shadowBlurOuter1"/><feColorMatrix values="0 0 0 0 0 0 0 0 0 0 0 0 0 0 0 0 0 0 0.5 0" in="shadowBlurOuter1"/></filter></defs><g fill="none" fill-rule="evenodd"><g transform="translate(5 3)" fill-rule="nonzero"><use fill="#000" filter="url(#a)" xlink:href="#b"/><use stroke="#9D9D9F" stroke-width="3" fill="#9D9D9F" fill-rule="evenodd" xlink:href="#b"/></g><g fill="#FFF"><path d="M19.62976 8.05388h8.33622v.62599h-.14964l2.8915 6.20598h1.45831v.00699c0 2.4162-1.95871 4.3749-4.37491 4.3749s-4.37491-1.9587-4.37491-4.3749v-.007h1.4583l2.8915-6.20597H19.6881l1.1033 11.83985h-2.3333l1.1033-11.83985h-8.01402v-.62599h8.07235L19.62474 8l.00502.05388zm-5.25491 6.83197h1.4583v.00699c0 2.4162-1.95871 4.3749-4.3749 4.3749-2.4162 0-4.37492-1.9587-4.37492-4.3749v-.007h1.4583L11.45825 8.626l2.91661 6.25986zm13.41639-5.0079l-2.33329 5.0079h4.66658l-2.33329-5.0079zm-16.333 0l-2.33328 5.0079h4.66657l-2.33329-5.0079z"/><path d="M10.97214 25.94493h17.18854v3.6655H10.97214v-3.6655zm0-3.54725v10.54717h3.41567V22.39768h-3.41567zm7.1619 0v10.54717h3.41566V22.39768h-3.41567zm6.61097 0v10.54717h3.41567V22.39768H24.745z" fill-rule="nonzero"/></g></g></svg>