<svg width="39" height="52" viewBox="0 0 39 52" xmlns="http://www.w3.org/2000/svg" xmlns:xlink="http://www.w3.org/1999/xlink"><title>transport pin</title><defs><path d="M29.12538 14.84824C29.12538 6.65696 22.59644 0 14.5627 0S0 6.65696 0 14.84824C0 25.9844 14.5627 42.07 14.5627 42.07s14.56268-16.08559 14.56268-27.22176z" id="b"/><filter x="-29.2%" y="-15.5%" width="158.4%" height="140.4%" filterUnits="objectBoundingBox" id="a"><feMorphology radius="1.5" operator="dilate" in="SourceAlpha" result="shadowSpreadOuter1"/><feOffset dy="2" in="shadowSpreadOuter1" result="shadowOffsetOuter1"/><feGaussianBlur stdDeviation="2" in="shadowOffsetOuter1" result="shadowBlurOuter1"/><feComposite in="shadowBlurOuter1" in2="SourceAlpha" operator="out" result="shadowBlurOuter1"/><feColorMatrix values="0 0 0 0 0 0 0 0 0 0 0 0 0 0 0 0 0 0 0.5 0" in="shadowBlurOuter1"/></filter></defs><g fill-rule="nonzero" fill="none"><g transform="translate(5 3)"><use fill="#000" filter="url(#a)" xlink:href="#b"/><use stroke="#9D9D9F" stroke-width="3" fill="#9D9D9F" fill-rule="evenodd" xlink:href="#b"/></g><path d="M20 11c-4 0-8 .5-8 4v9.5c0 1.93 1.57 3.5 3.5 3.5L14 29.5v.5h2.23l2-2H22l2 2h2v-.5L24.5 28c1.93 0 3.5-1.57 3.5-3.5V15c0-3.5-3.58-4-8-4zm-4.5 15c-.83 0-1.5-.67-1.5-1.5s.67-1.5 1.5-1.5 1.5.67 1.5 1.5-.67 1.5-1.5 1.5zm3.5-7h-5v-4h5v4zm2 0v-4h5v4h-5zm3.5 7c-.83 0-1.5-.67-1.5-1.5s.67-1.5 1.5-1.5 1.5.67 1.5 1.5-.67 1.5-1.5 1.5z" fill="#FFF"/></g></svg>