<svg width="39" height="52" viewBox="0 0 39 52" xmlns="http://www.w3.org/2000/svg" xmlns:xlink="http://www.w3.org/1999/xlink"><title>utilities</title><defs><path d="M29.12538 14.84824C29.12538 6.65696 22.59644 0 14.5627 0S0 6.65696 0 14.84824C0 25.9844 14.5627 42.07 14.5627 42.07s14.56268-16.08559 14.56268-27.22176z" id="b"/><filter x="-29.2%" y="-15.5%" width="158.4%" height="140.4%" filterUnits="objectBoundingBox" id="a"><feMorphology radius="1.5" operator="dilate" in="SourceAlpha" result="shadowSpreadOuter1"/><feOffset dy="2" in="shadowSpreadOuter1" result="shadowOffsetOuter1"/><feGaussianBlur stdDeviation="2" in="shadowOffsetOuter1" result="shadowBlurOuter1"/><feComposite in="shadowBlurOuter1" in2="SourceAlpha" operator="out" result="shadowBlurOuter1"/><feColorMatrix values="0 0 0 0 0 0 0 0 0 0 0 0 0 0 0 0 0 0 0.5 0" in="shadowBlurOuter1"/></filter></defs><g fill="none" fill-rule="evenodd"><g fill-rule="nonzero" transform="translate(5 3)"><use fill="#000" filter="url(#a)" xlink:href="#b"/><use stroke="#9D9D9F" stroke-width="3" fill="#9D9D9F" fill-rule="evenodd" xlink:href="#b"/></g><path d="M13.01276 24.83574C9.6857 24.83574 7 22.15004 7 18.82297c0-1.6609 1.92378-3.70296 3.1329-5.64297C11.342 11.24 13.01275 8 13.01275 8s1.21616 2.35454 2.90513 5.0291c1.68898 2.67458 3.10764 4.08858 3.10764 5.79387 0 3.32707-2.6857 6.01277-6.01277 6.01277zm12.45041-6.77503h4.87068l-4.48279 7.44183H31L20.29541 36.68085l3.25404-7.3286h-4.42683l6.34055-11.29154z" fill="#FFF"/></g></svg>