<?xml version="1.0" encoding="UTF-8"?>
<svg width="28px" height="28px" viewBox="0 0 28 28" version="1.1" xmlns="http://www.w3.org/2000/svg" xmlns:xlink="http://www.w3.org/1999/xlink">
    <!-- Generator: Sketch 44.1 (41455) - http://www.bohemiancoding.com/sketch -->
    <title>governement services</title>
    <desc>Created with Sketch.</desc>
    <defs></defs>
    <g id="-" stroke="none" stroke-width="1" fill="none" fill-rule="evenodd">
        <g id="Filters" transform="translate(-679.000000, -39.000000)">
            <g transform="translate(177.000000, 10.000000)" id="governement-services">
                <g transform="translate(502.000000, 29.000000)">
                    <rect id="Rectangle-4-Copy-2" fill="#E377A5" fill-rule="evenodd" x="0" y="0" width="28" height="28"></rect>
                    <polygon id="Shape" points="2.5 3 26.5 3 26.5 27 2.5 27"></polygon>
                    <path d="M6.5,13 L6.5,20 L9.5,20 L9.5,13 L6.5,13 Z M12.5,13 L12.5,20 L15.5,20 L15.5,13 L12.5,13 Z M4.5,25 L23.5,25 L23.5,22 L4.5,22 L4.5,25 Z M18.5,13 L18.5,20 L21.5,20 L21.5,13 L18.5,13 Z M14,4 L4.5,9 L4.5,11 L23.5,11 L23.5,9 L14,4 Z" id="Shape" fill="#FFFFFF" fill-rule="nonzero"></path>
                </g>
            </g>
        </g>
    </g>
</svg>