<?xml version="1.0" encoding="UTF-8"?>
<svg width="28px" height="28px" viewBox="0 0 28 28" version="1.1" xmlns="http://www.w3.org/2000/svg" xmlns:xlink="http://www.w3.org/1999/xlink">
    <!-- Generator: Sketch 44.1 (41455) - http://www.bohemiancoding.com/sketch -->
    <title>health</title>
    <desc>Created with Sketch.</desc>
    <defs></defs>
    <g id="-" stroke="none" stroke-width="1" fill="none" fill-rule="evenodd">
        <g id="Filters" transform="translate(-720.000000, -39.000000)">
            <g transform="translate(177.000000, 10.000000)" id="health">
                <g transform="translate(543.000000, 29.000000)">
                    <rect id="Rectangle-4-Copy-3" fill="#ED1C24" fill-rule="evenodd" x="0" y="0" width="28" height="28"></rect>
                    <polygon id="Shape" points="2 2 26 2 26 26 2 26"></polygon>
                    <path d="M21,5 L7,5 C5.9,5 5.01,5.9 5.01,7 L5,21 C5,22.1 5.9,23 7,23 L21,23 C22.1,23 23,22.1 23,21 L23,7 C23,5.9 22.1,5 21,5 Z M20,16 L16,16 L16,20 L12,20 L12,16 L8,16 L8,12 L12,12 L12,8 L16,8 L16,12 L20,12 L20,16 Z" id="Shape" fill="#FFFFFF" fill-rule="nonzero"></path>
                </g>
            </g>
        </g>
    </g>
</svg>