<?xml version="1.0" encoding="UTF-8"?>
<svg width="28px" height="28px" viewBox="0 0 28 28" version="1.1" xmlns="http://www.w3.org/2000/svg" xmlns:xlink="http://www.w3.org/1999/xlink">
    <!-- Generator: Sketch 44.1 (41455) - http://www.bohemiancoding.com/sketch -->
    <title>police and justice</title>
    <desc>Created with Sketch.</desc>
    <defs>
        <polygon id="path-1" points="3 2 27 2 27 26 3 26"></polygon>
    </defs>
    <g id="-" stroke="none" stroke-width="1" fill="none" fill-rule="evenodd">
        <g id="Filters" transform="translate(-760.000000, -39.000000)">
            <g transform="translate(177.000000, 10.000000)" id="police-and-justice">
                <g transform="translate(583.000000, 29.000000)">
                    <rect id="Rectangle-4-Copy-4" fill="#2E3192" fill-rule="evenodd" x="0" y="0" width="28" height="28"></rect>
                    <mask id="mask-2" fill="white">
                        <use xlink:href="#path-1"></use>
                    </mask>
                    <g id="a"></g>
                    <g id="law" mask="url(#mask-2)" stroke-width="1" fill-rule="evenodd">
                        <g transform="translate(2.000000, 2.000000)" id="Group-2">
                            <g transform="translate(0.958333, 0.000000)">
                                <path d="M11.0987645,0.0476639398 L18.4731082,0.0476639398 L18.4731082,0.601420782 L18.340741,0.601420782 L20.8986084,6.09132527 L22.188646,6.09132527 L22.188646,6.0975105 L22.188646,6.0975105 C22.188646,8.23491471 20.4559375,9.96762317 18.3185333,9.96762317 L18.3185333,9.96762317 C16.1811291,9.96762317 14.4484206,8.23491471 14.4484206,6.0975105 L14.4484206,6.09132527 L15.7384582,6.09132527 L18.2963256,0.601420782 L11.150366,0.601420782 L12.126353,11.0751369 L10.0622929,11.0751369 L11.0382799,0.601420782 L3.94895476,0.601420782 L3.94895476,0.0476639398 L11.0898814,0.0476639398 L11.094323,0 L11.0987645,0.0476639398 Z M6.45018778,6.09132527 L7.74022533,6.09132527 L7.74022533,6.0975105 C7.74022533,8.23491471 6.00751687,9.96762317 3.87011267,9.96762317 L3.87011267,9.96762317 L3.87011267,9.96762317 C1.73270846,9.96762317 -1.82332688e-16,8.23491471 -4.4408921e-16,6.0975105 L0,6.09132527 L1.29003756,6.09132527 L3.87011267,0.553756843 L6.45018778,6.09132527 Z M18.3185333,1.66127053 L16.2544732,6.09132527 L20.3825934,6.09132527 L18.3185333,1.66127053 Z M3.87011267,1.66127053 L1.80605258,6.09132527 L5.93417276,6.09132527 L3.87011267,1.66127053 Z" id="Combined-Shape" fill="#FFFFFF"></path>
                                <path d="M3.44010015,15.8743628 L18.6453428,15.8743628 L18.6453428,19.1169168 L3.44010015,19.1169168 L3.44010015,15.8743628 Z M3.44010015,12.7364074 L3.44010015,22.066595 L6.46165478,22.066595 L6.46165478,12.7364074 L3.44010015,12.7364074 Z M9.77561792,12.7364074 L9.77561792,22.066595 L12.7971726,22.066595 L12.7971726,12.7364074 L9.77561792,12.7364074 Z M15.6237882,12.7364074 L15.6237882,22.066595 L18.6453428,22.066595 L18.6453428,12.7364074 L15.6237882,12.7364074 Z" id="Shape" fill="#FFFFFF" fill-rule="nonzero"></path>
                            </g>
                        </g>
                    </g>
                </g>
            </g>
        </g>
    </g>
</svg>