<?xml version="1.0" encoding="UTF-8"?>
<svg width="28px" height="28px" viewBox="0 0 28 28" version="1.1" xmlns="http://www.w3.org/2000/svg" xmlns:xlink="http://www.w3.org/1999/xlink">
    <!-- Generator: Sketch 44.1 (41455) - http://www.bohemiancoding.com/sketch -->
    <title>transport</title>
    <desc>Created with Sketch.</desc>
    <defs></defs>
    <g id="-" stroke="none" stroke-width="1" fill="none" fill-rule="evenodd">
        <g id="Filters" transform="translate(-841.000000, -39.000000)">
            <g transform="translate(177.000000, 10.000000)" id="transport">
                <g transform="translate(664.000000, 29.000000)">
                    <g id="unselected">
                        <rect id="Rectangle-4-Copy-6" fill="#2484C6" fill-rule="evenodd" x="0" y="0" width="28" height="28"></rect>
                        <path d="M14,5 C10,5 6,5.5 6,9 L6,18.5 C6,20.43 7.57,22 9.5,22 L8,23.5 L8,24 L10.23,24 L12.23,22 L16,22 L18,24 L20,24 L20,23.5 L18.5,22 C20.43,22 22,20.43 22,18.5 L22,9 C22,5.5 18.42,5 14,5 Z M9.5,20 C8.67,20 8,19.33 8,18.5 C8,17.67 8.67,17 9.5,17 C10.33,17 11,17.67 11,18.5 C11,19.33 10.33,20 9.5,20 Z M13,13 L8,13 L8,9 L13,9 L13,13 Z M15,13 L15,9 L20,9 L20,13 L15,13 Z M18.5,20 C17.67,20 17,19.33 17,18.5 C17,17.67 17.67,17 18.5,17 C19.33,17 20,17.67 20,18.5 C20,19.33 19.33,20 18.5,20 Z" id="Shape" fill="#FFFFFF" fill-rule="nonzero"></path>
                    </g>
                </g>
            </g>
        </g>
    </g>
</svg>