<svg width="28" height="28" viewBox="0 0 28 28" xmlns="http://www.w3.org/2000/svg" xmlns:xlink="http://www.w3.org/1999/xlink"><title>police and justice</title><defs><path id="a" d="M3 2h24v24H3z"/></defs><g fill="none" fill-rule="evenodd"><path fill="#2E3192" d="M0 0h28v28H0z"/><mask id="b" fill="#fff"><use xlink:href="#a"/></mask><g fill="#FFF" mask="url(#b)"><path d="M14.0571 2.04766h7.37434v.55376h-.13237l2.55787 5.4899h1.29004v.00619c0 2.1374-1.7327 3.87011-3.87011 3.87011-2.1374 0-3.87012-1.7327-3.87012-3.87011v-.00618h1.29004l2.55787-5.4899H14.1087l.97599 10.4737h-2.06406l.97598-10.4737H6.9073v-.55377h7.14092L14.05266 2l.00444.04766zM9.40852 8.09133h1.29004v.00618c0 2.1374-1.73271 3.87011-3.87011 3.87011s-3.87012-1.7327-3.87012-3.8701v-.0062h1.29004l2.58008-5.53756 2.58007 5.53757zm11.86835-4.43006L19.2128 8.09133h4.12812l-2.06406-4.43006zm-14.44842 0L4.76439 8.09133H8.8925L6.82845 3.66127z"/><path d="M6.39843 17.87436h15.20525v3.24256H6.39843v-3.24256zm0-3.13795v9.33019H9.42v-9.3302H6.39843zm6.33552 0v9.33019h3.02156v-9.3302h-3.02156zm5.84817 0v9.33019h3.02156v-9.3302h-3.02156z" fill-rule="nonzero"/></g></g></svg>