<svg width="28" height="28" viewBox="0 0 28 28" xmlns="http://www.w3.org/2000/svg"><title>transport</title><g fill="none" fill-rule="evenodd"><path fill="#9D9D9F" d="M0 0h28v28H0z"/><path d="M14 5c-4 0-8 .5-8 4v9.5C6 20.43 7.57 22 9.5 22L8 23.5v.5h2.23l2-2H16l2 2h2v-.5L18.5 22c1.93 0 3.5-1.57 3.5-3.5V9c0-3.5-3.58-4-8-4zM9.5 20c-.83 0-1.5-.67-1.5-1.5S8.67 17 9.5 17s1.5.67 1.5 1.5-.67 1.5-1.5 1.5zm3.5-7H8V9h5v4zm2 0V9h5v4h-5zm3.5 7c-.83 0-1.5-.67-1.5-1.5s.67-1.5 1.5-1.5 1.5.67 1.5 1.5-.67 1.5-1.5 1.5z" fill="#FFF" fill-rule="nonzero"/></g></svg>